<?xml version="1.0" encoding="UTF-8"?>
<svg xmlns="http://www.w3.org/2000/svg" width="53" height="59" viewBox="0 0 53 59" fill="none">
  <path fill-rule="evenodd" clip-rule="evenodd" d="M0 0H15.3821C15.3821 11.8071 15.3821 23.6142 15.3821 35.4213C15.4124 36.0461 15.1077 36.7165 14.6281 37.2781C13.8903 38.1421 12.8324 38.654 12.8324 39.153C12.8324 39.2615 12.8163 39.446 13.1111 39.632C13.8406 40.0924 15.3242 40.6983 15.9752 41.1039C16.5357 41.4531 16.2505 41.6471 15.7458 41.9084C14.7918 42.4024 12.9236 42.8883 12.9236 43.3908C12.9428 43.7518 13.278 43.8963 13.5215 44.045C14.0265 44.3533 13.6562 44.4812 13.305 44.6454C12.6695 44.9424 11.6183 45.3624 11.6183 45.8868C11.5934 46.8005 13.2235 46.9012 13.7859 47.2423C14.1214 47.4457 13.9428 47.5524 13.7606 47.7407C13.4679 48.0431 12.9352 48.6324 12.5612 49.5043C11.2669 52.5213 12.7558 56.409 15.3821 58.1552H0V0Z" fill="#181A24"></path>
  <path fill-rule="evenodd" clip-rule="evenodd" d="M18.3258 0H25.7229C25.7229 11.8071 25.7229 23.6142 25.7229 35.4213C25.7375 36.0461 25.591 36.7165 25.3603 37.2781C25.0055 38.1421 24.4968 38.654 24.4968 39.153C24.4968 39.2615 24.4891 39.446 24.6308 39.632C24.9816 40.0924 25.6951 40.6983 26.0081 41.1039C26.2777 41.4531 26.1406 41.6471 25.8979 41.9084C25.4391 42.4024 24.5407 42.8883 24.5407 43.3908C24.5499 43.7518 24.7111 43.8963 24.8282 44.045C25.071 44.3533 24.893 44.4812 24.7241 44.6454C24.4185 44.9424 23.913 45.3624 23.913 45.8868C23.901 46.8005 24.6849 46.9012 24.9553 47.2423C25.1167 47.4457 25.0308 47.5524 24.9432 47.7407C24.8024 48.0431 24.5463 48.6324 24.3664 49.5043C23.744 52.5213 24.46 56.409 25.7229 58.1552H18.3258V0Z" fill="#181A24"></path>
  <path fill-rule="evenodd" clip-rule="evenodd" d="M30.2137 0H35.8014C35.8014 11.8071 35.8014 23.6142 35.8014 35.4213C35.8124 36.0461 35.7017 36.7165 35.5275 37.2781C35.2595 38.1421 34.8752 38.654 34.8752 39.153C34.8752 39.2615 34.8694 39.446 34.9764 39.632C35.2414 40.0924 35.7803 40.6983 36.0168 41.1039C36.2204 41.4531 36.1168 41.6471 35.9335 41.9084C35.5869 42.4024 34.9083 42.8883 34.9083 43.3908C34.9153 43.7518 35.037 43.8963 35.1255 44.045C35.3089 44.3533 35.1744 44.4812 35.0468 44.6454C34.816 44.9424 34.4342 45.3624 34.4342 45.8868C34.4251 46.8005 35.0173 46.9012 35.2215 47.2423C35.3434 47.4457 35.2786 47.5524 35.2123 47.7407C35.106 48.0431 34.9125 48.6324 34.7766 49.5043C34.3065 52.5213 34.8474 56.409 35.8014 58.1552H30.2137V0Z" fill="#181A24"></path>
  <path fill-rule="evenodd" clip-rule="evenodd" d="M41.7095 0H44.6032C44.6032 11.8071 44.6032 23.6142 44.6032 35.4213C44.6089 36.0461 44.5516 36.7165 44.4614 37.2781C44.3226 38.1421 44.1236 38.654 44.1236 39.153C44.1236 39.2615 44.1205 39.446 44.176 39.632C44.3132 40.0924 44.5923 40.6983 44.7148 41.1039C44.8202 41.4531 44.7666 41.6471 44.6716 41.9084C44.4921 42.4024 44.1407 42.8883 44.1407 43.3908C44.1443 43.7518 44.2074 43.8963 44.2532 44.045C44.3482 44.3533 44.2785 44.4812 44.2125 44.6454C44.0929 44.9424 43.8952 45.3624 43.8952 45.8868C43.8904 46.8005 44.1971 46.9012 44.3029 47.2423C44.366 47.4457 44.3324 47.5524 44.2982 47.7407C44.2431 48.0431 44.1429 48.6324 44.0725 49.5043C43.829 52.5213 44.1091 56.409 44.6032 58.1552H41.7095V0Z" fill="#181A24"></path>
  <path fill-rule="evenodd" clip-rule="evenodd" d="M51.4685 0H52.9154C52.9154 11.8071 52.9154 23.6142 52.9154 35.4213C52.9182 36.0461 52.8895 36.7165 52.8444 37.2781C52.775 38.1421 52.6755 38.654 52.6755 39.153C52.6755 39.2615 52.674 39.446 52.7017 39.632C52.7704 40.0924 52.9099 40.6983 52.9711 41.1039C53.0239 41.4531 52.997 41.6471 52.9496 41.9084C52.8598 42.4024 52.6841 42.8883 52.6841 43.3908C52.6859 43.7518 52.7174 43.8963 52.7404 44.045C52.7878 44.3533 52.753 44.4812 52.72 44.6454C52.6602 44.9424 52.5613 45.3624 52.5613 45.8868C52.559 46.8005 52.7123 46.9012 52.7652 47.2423C52.7968 47.4457 52.78 47.5524 52.7628 47.7407C52.7353 48.0431 52.6852 48.6324 52.65 49.5043C52.5283 52.5213 52.6683 56.409 52.9154 58.1552H51.4685V0Z" fill="#181A24"></path>
</svg>
